M48
;DRILL file {KiCad 5.0.1} date Thu 17 Jan 2019 12:14:41 PM CET
;FORMAT={-:-/ absolute / inch / decimal}
FMAT,2
INCH,TZ
T1C0.0236
T2C0.0315
T3C0.0394
T4C0.0400
T5C0.0472
T6C0.0598
T7C0.1260
%
G90
G05
M72
T1
X4.225Y-3.375
X4.225Y-3.875
X4.375Y-4.725
X4.475Y-3.25
X4.475Y-3.375
X4.475Y-3.875
X4.475Y-4.025
X4.8Y-4.325
X4.8Y-4.475
X4.875Y-4.025
X4.975Y-3.925
X5.2Y-4.25
X5.275Y-4.75
X5.3Y-3.39
X5.35Y-4.25
X5.475Y-4.25
X5.475Y-4.8
X5.575Y-4.2
X5.675Y-4.2
X5.725Y-4.2
X5.775Y-3.39
X5.775Y-3.725
X5.775Y-3.9
X5.775Y-4.2
X5.875Y-4.2
X5.925Y-4.2
X6.075Y-4.25
X6.075Y-4.8
X6.25Y-3.39
X6.3Y-4.925
X6.3Y-5.075
X6.6Y-3.9
X6.8Y-4.3
X6.8Y-4.6
X7.075Y-3.25
X7.075Y-3.375
X7.075Y-3.875
X7.075Y-4.025
X7.325Y-3.375
X7.325Y-3.875
T2
X5.025Y-4.125
X5.1037Y-4.125
X5.475Y-4.35
X5.475Y-4.65
X5.575Y-4.35
X5.575Y-4.65
X5.675Y-4.35
X5.675Y-4.65
X5.775Y-4.35
X5.775Y-4.65
X5.875Y-4.35
X5.875Y-4.65
X5.975Y-4.35
X5.975Y-4.65
X6.075Y-4.35
X6.075Y-4.65
T3
X4.375Y-4.5
X4.5719Y-4.5
X5.9Y-3.725
X5.95Y-3.525
X6.Y-3.725
X6.05Y-3.525
X6.1Y-3.725
X6.15Y-3.525
X6.2Y-3.725
X6.25Y-3.525
X6.3Y-3.725
X6.35Y-3.525
X6.4Y-3.725
X6.45Y-3.525
X6.5Y-3.725
X6.55Y-3.525
X6.6Y-3.725
X6.95Y-4.25
X6.95Y-4.35
X6.95Y-4.45
X6.95Y-4.55
X6.95Y-4.65
X6.95Y-4.75
X5.775Y-4.925
X5.875Y-4.925
X5.975Y-4.925
X6.075Y-4.925
X4.95Y-3.725
X5.Y-3.525
X5.05Y-3.725
X5.1Y-3.525
X5.15Y-3.725
X5.2Y-3.525
X5.25Y-3.725
X5.3Y-3.525
X5.35Y-3.725
X5.4Y-3.525
X5.45Y-3.725
X5.5Y-3.525
X5.55Y-3.725
X5.6Y-3.525
X5.65Y-3.725
T4
X6.5Y-4.3
X6.5Y-4.4
X6.5Y-4.5
X6.5Y-4.6
X6.5Y-4.7
X6.6Y-4.3
X6.6Y-4.4
X6.6Y-4.5
X6.6Y-4.6
X6.6Y-4.7
T5
X5.025Y-4.4
X5.025Y-4.5
X5.025Y-4.6
T6
X7.2Y-3.525
X7.2Y-3.725
X4.35Y-3.525
X4.35Y-3.725
X4.375Y-4.925
X4.575Y-4.925
T7
X4.35Y-3.125
X4.85Y-4.925
X7.2Y-3.125
X7.2Y-4.925
T0
M30
