M48
;DRILL file {KiCad 5.0.0} date Fri Oct  5 09:25:49 2018
;FORMAT={-:-/ absolute / inch / decimal}
FMAT,2
INCH,TZ
T1C0.0157
T2C0.0315
T3C0.0394
T4C0.0472
T5C0.1200
%
G90
G05
M72
T1
X0.65Y-1.2
X0.65Y-2.15
X0.85Y-0.85
X0.85Y-1.2
X0.85Y-2.15
X0.85Y-2.4
X1.15Y-2.2
X1.3Y-2.2
X1.4Y-2.2
X1.6Y-0.85
X1.85Y-2.15
T2
X0.85Y-1.35
X0.85Y-1.75
X1.1Y-1.4
X1.1Y-1.5
X1.1Y-1.6
X1.1Y-1.7
X1.1Y-1.8
X1.1Y-1.9
X1.1Y-2.
X1.4Y-1.4
X1.4Y-1.5
X1.4Y-1.6
X1.4Y-1.7
X1.4Y-1.8
X1.4Y-1.9
X1.4Y-2.
T3
X1.05Y-2.35
X1.05Y-2.45
X1.15Y-2.35
X1.15Y-2.45
X1.25Y-2.35
X1.25Y-2.45
X1.35Y-2.35
X1.35Y-2.45
X1.45Y-2.35
X1.45Y-2.45
X1.65Y-1.95
X1.75Y-1.95
X1.85Y-1.95
X1.65Y-1.75
X1.75Y-1.75
X1.85Y-1.75
X1.15Y-0.85
X1.25Y-0.85
X1.35Y-0.85
X1.65Y-1.55
X1.75Y-1.55
X1.85Y-1.55
X0.85Y-1.9
X0.85Y-2.
X1.15Y-1.15
X1.3469Y-1.15
T4
X1.85Y-1.05
X1.85Y-1.2
T5
X0.7Y-0.7
X2.Y-2.6
X0.7Y-2.6
X2.Y-0.7
T0
M30
